<svg width="40" height="40" viewBox="0 0 40 40" fill="none" xmlns="http://www.w3.org/2000/svg">
<path d="M18.333 19.9998H21.6663C22.5504 19.9998 23.3982 19.6486 24.0234 19.0235C24.6485 18.3984 24.9997 17.5506 24.9997 16.6665C24.9997 15.7824 24.6485 14.9346 24.0234 14.3095C23.3982 13.6844 22.5504 13.3332 21.6663 13.3332H16.6663C15.6663 13.3332 14.833 13.6665 14.333 14.3332L4.99967 23.3332M11.6663 29.9995L14.333 27.6661C14.833 26.9995 15.6663 26.6661 16.6663 26.6661H23.333C25.1663 26.6661 26.833 25.9995 27.9997 24.6661L35.6663 17.3328C36.3095 16.725 36.6849 15.8866 36.7099 15.0021C36.7349 14.1175 36.4075 13.2593 35.7997 12.6161C35.1919 11.973 34.3535 11.5976 33.469 11.5726C32.5844 11.5476 31.7262 11.875 31.083 12.4828L24.083 18.9828M3.33301 21.6665L13.333 31.6665" stroke="#F7F4EE" stroke-width="2" stroke-linecap="round" stroke-linejoin="round"/>
</svg>
