<svg width="40" height="40" viewBox="0 0 40 40" fill="none" xmlns="http://www.w3.org/2000/svg">
<path d="M11.6663 35H28.333M19.9997 5V35M4.99967 11.6667H8.33301C11.6663 11.6667 16.6663 10 19.9997 8.33333C23.333 10 28.333 11.6667 31.6663 11.6667H34.9997M26.6663 26.6667L31.6663 13.3333L36.6663 26.6667C35.2163 27.75 33.4663 28.3333 31.6663 28.3333C29.8663 28.3333 28.1163 27.75 26.6663 26.6667ZM3.33301 26.6667L8.33301 13.3333L13.333 26.6667C11.883 27.75 10.133 28.3333 8.33301 28.3333C6.53301 28.3333 4.78301 27.75 3.33301 26.6667Z" stroke="#F7F4EE" stroke-width="2" stroke-linecap="round" stroke-linejoin="round"/>
</svg>
