<svg width="40" height="40" viewBox="0 0 40 40" fill="none" xmlns="http://www.w3.org/2000/svg">
<path d="M14.3164 22.516L25.6997 29.1493M25.6831 10.8493L14.3164 17.4826M35 8.33301C35 11.0944 32.7614 13.333 30 13.333C27.2386 13.333 25 11.0944 25 8.33301C25 5.57158 27.2386 3.33301 30 3.33301C32.7614 3.33301 35 5.57158 35 8.33301ZM15 19.9997C15 22.7611 12.7614 24.9997 10 24.9997C7.23858 24.9997 5 22.7611 5 19.9997C5 17.2383 7.23858 14.9997 10 14.9997C12.7614 14.9997 15 17.2383 15 19.9997ZM35 31.6663C35 34.4278 32.7614 36.6663 30 36.6663C27.2386 36.6663 25 34.4278 25 31.6663C25 28.9049 27.2386 26.6663 30 26.6663C32.7614 26.6663 35 28.9049 35 31.6663Z" stroke="#F7F4EE" stroke-width="2" stroke-linecap="round" stroke-linejoin="round"/>
</svg>
