<svg width="40" height="40" viewBox="0 0 40 40" fill="none" xmlns="http://www.w3.org/2000/svg">
<path d="M18.333 28.3332L21.6663 31.6665C21.9946 31.9948 22.3844 32.2552 22.8134 32.4329C23.2423 32.6106 23.702 32.702 24.1663 32.702C24.6306 32.702 25.0904 32.6106 25.5193 32.4329C25.9483 32.2552 26.338 31.9948 26.6663 31.6665C26.9946 31.3382 27.2551 30.9484 27.4327 30.5195C27.6104 30.0905 27.7019 29.6308 27.7019 29.1665C27.7019 28.7022 27.6104 28.2425 27.4327 27.8135C27.2551 27.3846 26.9946 26.9948 26.6663 26.6665M23.3334 23.3332L27.5001 27.4999C28.1631 28.1629 29.0624 28.5354 30.0001 28.5354C30.9377 28.5354 31.837 28.1629 32.5001 27.4999C33.1631 26.8368 33.5356 25.9375 33.5356 24.9999C33.5356 24.0622 33.1631 23.1629 32.5001 22.4999L26.0334 16.0332C25.0959 15.0969 23.8251 14.5709 22.5001 14.5709C21.175 14.5709 19.9042 15.0969 18.9667 16.0332L17.5001 17.4999C16.837 18.1629 15.9377 18.5354 15.0001 18.5354C14.0624 18.5354 13.1631 18.1629 12.5001 17.4999C11.837 16.8368 11.4645 15.9375 11.4645 14.9999C11.4645 14.0622 11.837 13.1629 12.5001 12.4999L17.1834 7.81653C18.7038 6.3001 20.6865 5.33412 22.8178 5.07148C24.949 4.80885 27.107 5.26458 28.9501 6.36653L29.7334 6.8332C30.443 7.26151 31.2868 7.41006 32.1001 7.24986L35.0001 6.66653M34.9997 4.99984L36.6663 23.3332H33.333M4.99967 4.99984L3.33301 23.3332L14.1663 34.1665C14.8294 34.8295 15.7287 35.202 16.6663 35.202C17.604 35.202 18.5033 34.8295 19.1663 34.1665C19.8294 33.5035 20.2019 32.6042 20.2019 31.6665C20.2019 30.7288 19.8294 29.8295 19.1663 29.1665M4.99967 6.6665H18.333" stroke="#F7F4EE" stroke-width="2" stroke-linecap="round" stroke-linejoin="round"/>
</svg>
