<svg width="40" height="40" viewBox="0 0 40 40" fill="none" xmlns="http://www.w3.org/2000/svg">
<path d="M6.66634 36.6663H29.9997C30.8837 36.6663 31.7316 36.3152 32.3567 35.69C32.9818 35.0649 33.333 34.2171 33.333 33.333V11.6663L24.9997 3.33301H9.99967C9.11562 3.33301 8.26777 3.6842 7.64265 4.30932C7.01753 4.93444 6.66634 5.78229 6.66634 6.66634V8.33301M23.333 3.33301V9.99967C23.333 10.8837 23.6842 11.7316 24.3093 12.3567C24.9344 12.9818 25.7823 13.333 26.6663 13.333H33.333M13.333 21.6663V18.333C13.333 17.449 12.9818 16.6011 12.3567 15.976C11.7316 15.3509 10.8837 14.9997 9.99967 14.9997C9.11562 14.9997 8.26777 15.3509 7.64265 15.976C7.01753 16.6011 6.66634 17.449 6.66634 18.333V21.6663M4.99967 21.6663H14.9997C15.9201 21.6663 16.6663 22.4125 16.6663 23.333V28.333C16.6663 29.2535 15.9201 29.9997 14.9997 29.9997H4.99967C4.0792 29.9997 3.33301 29.2535 3.33301 28.333V23.333C3.33301 22.4125 4.0792 21.6663 4.99967 21.6663Z" stroke="#F7F4EE" stroke-width="2" stroke-linecap="round" stroke-linejoin="round"/>
</svg>
