<svg width="153" height="113" viewBox="0 0 153 113" fill="none" xmlns="http://www.w3.org/2000/svg">
<path d="M49.4116 78.9204C25.8538 87.5856 6.97509 104.783 0.480469 112.299C4.90862 96.914 27.7136 76.2678 38.5626 67.8678C32.437 64.331 19.8315 53.19 18.4145 36.9207C16.6432 16.584 26.6066 3.76303 33.2488 0.447266C31.2397 2.44462 31.4037 6.26828 31.4775 7.963C31.4775 12.0319 26.1638 12.384 24.8353 12.384C22.8426 13.8577 19.123 20.6955 20.1857 36.2575C22.6212 64.5521 49.4116 64.331 61.8104 61.8995C74.2092 59.4679 84.1726 51.068 84.6154 48.1943C82.1356 50.4932 77.8255 50.6259 75.9805 50.4048C77.7517 49.8153 81.6042 47.5754 82.8441 43.3312C84.394 38.0259 86.3866 34.2681 89.9292 31.3944C86.1652 31.8365 84.8368 35.3733 80.63 38.6891C81.5157 34.047 86.1652 23.2155 96.35 18.7945C106.535 14.3735 114.284 16.805 118.269 16.805C117.738 15.2135 114.063 14.0787 112.291 13.7103C116.498 12.9735 126.019 12.0745 130.447 14.3735C135.982 17.2471 138.639 25.6471 139.524 25.6471C140.41 25.6471 141.296 23.2155 137.753 18.7945C149.621 26.2218 147.421 37.5101 144.838 42.2259L151.48 56.3732C149.562 58.6574 145.192 63.7121 143.067 65.6573C139.702 63.8889 139.008 59.91 139.082 58.1416L133.546 59.0258C133.546 57.6258 132.395 54.5606 127.79 53.4995C137.753 62.1205 133.546 75.1625 127.126 81.1309C119.598 76.4888 125.576 73.8362 127.126 69.1941C128.675 64.5521 122.919 65.2152 115.17 66.3205C108.793 60.8384 102.623 61.3837 100.335 62.3416C102.033 62.3416 106.092 62.9163 108.749 65.2152C74.8734 79.5835 78.8588 68.0889 49.4116 78.9204Z" fill="#D67E3F" stroke="#D67E3F"/>
</svg>
