<svg width="121" height="115" viewBox="0 0 121 115" fill="none" xmlns="http://www.w3.org/2000/svg">
<path d="M28.8225 114.763C19.8447 114.847 12.7622 111.83 7.57494 105.713C2.64416 99.5935 0.120432 90.2409 0.00375392 77.6551C-0.122449 64.0419 2.96363 51.0411 9.26201 38.6526C15.8145 26.005 25.318 13.4584 37.7725 1.01295C38.0267 0.753725 38.4102 0.621734 38.9233 0.616978C39.6928 0.609844 40.2094 0.990371 40.473 1.75856C40.9908 2.2675 41.125 2.90845 40.8756 3.68139C34.0285 12.2218 29.2335 20.7431 26.4905 29.2454C24.0016 37.4885 22.8048 46.7471 22.9001 57.0212C22.9667 64.2131 23.658 69.6011 24.9739 73.1852C26.2874 76.5124 28.3656 79.3187 31.2086 81.6043L16.9975 84.4332C16.7005 80.0691 17.9521 76.7181 20.7522 74.3803C23.5524 72.0424 27.3892 70.8509 32.2629 70.8057C38.9321 70.7439 44.08 72.6227 47.7069 76.4422C51.5902 80.2594 53.5628 85.507 53.6247 92.1852C53.689 99.1203 51.4316 104.664 46.8526 108.816C42.5277 112.71 36.5177 114.692 28.8225 114.763ZM95.386 114.146C86.4082 114.229 79.3257 111.213 74.1384 105.096C69.2077 98.9764 66.6839 89.6238 66.5672 77.038C66.441 63.4248 69.5271 50.424 75.8255 38.0356C82.378 25.3879 91.8815 12.8414 104.336 0.395868C104.59 0.13664 104.974 0.00464882 105.487 -0.000107165C106.256 -0.0072411 106.773 0.373286 107.037 1.14147C107.554 1.65042 107.688 2.29136 107.439 3.06431C100.592 11.6047 95.797 20.126 93.054 28.6283C90.5651 36.8714 89.3683 46.13 89.4636 56.4042C89.5302 63.5961 90.2215 68.984 91.5374 72.5681C92.8509 75.8953 94.9291 78.7016 97.7721 80.9872L83.561 83.8161C83.264 79.452 84.5156 76.101 87.3157 73.7632C90.1159 71.4253 93.9528 70.2338 98.8264 70.1886C105.496 70.1268 110.644 72.0057 114.27 75.8252C118.154 79.6423 120.126 84.8899 120.188 91.5681C120.252 98.5032 117.995 104.047 113.416 108.199C109.091 112.093 103.081 114.075 95.386 114.146Z" fill="#3A4684"/>
</svg>
