<svg width="112" height="106" viewBox="0 0 112 106" fill="none" xmlns="http://www.w3.org/2000/svg">
<path d="M85.4359 0C93.812 0 100.274 2.86486 104.821 8.59459C109.607 14.3243 112 23.0383 112 34.7365C112 47.3896 108.889 59.5653 102.667 71.2635C96.6838 82.723 87.8291 94.1824 76.1026 105.642C75.8633 105.881 75.5043 106 75.0257 106C74.3077 106 73.7094 105.761 73.2308 105.284C72.9915 104.568 72.9915 103.851 73.2308 103.135C79.6923 95.2568 84.1197 87.4977 86.5128 79.8581C89.1453 71.9797 90.4615 63.2658 90.4615 53.7162C90.4615 47.0315 89.8633 42.1374 88.6667 39.0338C87.4701 35.6914 85.5556 32.9459 82.9231 30.7973L96.2051 28.2905C96.4444 32.3491 95.2479 35.4527 92.6154 37.6013C89.9829 39.75 86.3932 40.8243 81.8462 40.8243C75.6239 40.8243 70.718 39.0338 67.1282 35.4527C63.7778 31.8716 62.1026 26.9775 62.1026 20.7703C62.1026 14.3243 64.1368 9.3108 68.2051 5.72972C72.5128 1.90991 78.2564 0 85.4359 0ZM23.3333 0C31.7094 0 38.1709 2.86486 42.718 8.59459C47.5043 14.3243 49.8974 23.0383 49.8974 34.7365C49.8974 47.3896 46.7863 59.5653 40.5641 71.2635C34.5812 82.723 25.7265 94.1824 14 105.642C13.7607 105.881 13.4017 106 12.9231 106C12.2051 106 11.6068 105.761 11.1282 105.284C10.8889 104.568 10.8889 103.851 11.1282 103.135C17.5897 95.2568 22.0171 87.4977 24.4103 79.8581C27.0427 71.9797 28.359 63.2658 28.359 53.7162C28.359 47.0315 27.7607 42.1374 26.5641 39.0338C25.3675 35.6914 23.453 32.9459 20.8205 30.7973L34.1026 28.2905C34.3419 32.3491 33.1453 35.4527 30.5128 37.6013C27.8803 39.75 24.2906 40.8243 19.7436 40.8243C13.5214 40.8243 8.61538 39.0338 5.02564 35.4527C1.67521 31.8716 0 26.9775 0 20.7703C0 14.3243 2.03419 9.3108 6.10257 5.72972C10.4103 1.90991 16.1539 0 23.3333 0Z" fill="#3A4684"/>
</svg>
